# This file uses centimeters as units for non-parametric coordinates.

mtllib Grass_01.mtl
g default
v 2.616825 3.619863 30.161446
v -2.261096 3.619863 33.655140
v 2.616825 11.619864 30.161446
v -2.261096 11.619864 33.655140
v 2.907966 11.619864 30.567940
v -1.969954 11.619864 34.061634
v 2.907966 3.619863 30.567940
v -1.969954 3.619863 34.061634
vt 0.704249 0.312939
vt 0.722241 0.312939
vt 0.722241 0.600815
vt 0.704249 0.600815
vt 0.737748 0.312939
vt 0.755740 0.312939
vt 0.755740 0.600815
vt 0.737748 0.600815
vt 0.938743 0.456877
vt 0.938743 0.240971
vt 0.956735 0.240971
vt 0.956735 0.456877
vt 0.838245 0.832019
vt 0.838245 0.616113
vt 0.856238 0.616113
vt 0.856238 0.832019
vt 0.009766 0.009766
vt 0.225672 0.009766
vt 0.225672 0.297641
vt 0.009766 0.297641
vt 0.472754 0.312939
vt 0.688661 0.312939
vt 0.688661 0.600814
vt 0.472754 0.600814
vn -0.582282 0.000000 -0.812987
vn -0.582282 0.000000 -0.812987
vn -0.582282 0.000000 -0.812987
vn -0.582282 0.000000 -0.812987
vn 0.000000 1.000000 0.000000
vn 0.000000 1.000000 0.000000
vn 0.000000 1.000000 0.000000
vn 0.000000 1.000000 0.000000
vn 0.582282 0.000000 0.812987
vn 0.582282 0.000000 0.812987
vn 0.582282 0.000000 0.812987
vn 0.582282 0.000000 0.812987
vn 0.000000 -1.000000 -0.000000
vn 0.000000 -1.000000 -0.000000
vn 0.000000 -1.000000 -0.000000
vn 0.000000 -1.000000 -0.000000
vn -0.812987 0.000000 0.582281
vn -0.812987 0.000000 0.582281
vn -0.812987 0.000000 0.582281
vn -0.812987 0.000000 0.582281
vn 0.812987 0.000000 -0.582281
vn 0.812987 0.000000 -0.582281
vn 0.812987 0.000000 -0.582281
vn 0.812987 0.000000 -0.582281
s off
g Grass4 GrassGroup
usemtl initialShadingGroup
f 1/17/1 2/18/2 4/19/3 3/20/4
f 3/9/5 4/10/6 6/11/7 5/12/8
f 5/21/9 6/22/10 8/23/11 7/24/12
f 7/13/13 8/14/14 2/15/15 1/16/16
f 2/1/17 8/2/18 6/3/19 4/4/20
f 7/5/21 1/6/22 3/7/23 5/8/24
g default
v -1.285860 2.033827 28.072901
v 1.489434 2.033827 33.392464
v -1.285860 10.033827 28.072901
v 1.489434 10.033827 33.392464
v -0.842563 10.033827 27.841625
v 1.932730 10.033827 33.161190
v -0.842563 2.033827 27.841625
v 1.932730 2.033827 33.161190
vt 0.838245 0.312939
vt 0.856238 0.312939
vt 0.856238 0.600815
vt 0.838245 0.600815
vt 0.871745 0.312939
vt 0.889737 0.312939
vt 0.889737 0.600815
vt 0.871745 0.600815
vt 0.938743 0.919287
vt 0.938743 0.703380
vt 0.956735 0.703380
vt 0.956735 0.919287
vt 0.905244 0.528846
vt 0.905244 0.312939
vt 0.923236 0.312939
vt 0.923236 0.528846
vt 0.009766 0.312939
vt 0.225672 0.312939
vt 0.225672 0.600814
vt 0.009766 0.600814
vt 0.241260 0.616113
vt 0.457166 0.616113
vt 0.457166 0.903988
vt 0.241260 0.903988
vn -0.886594 0.000000 0.462549
vn -0.886594 0.000000 0.462549
vn -0.886594 0.000000 0.462549
vn -0.886594 0.000000 0.462549
vn 0.000000 1.000000 0.000000
vn 0.000000 1.000000 0.000000
vn 0.000000 1.000000 0.000000
vn 0.000000 1.000000 0.000000
vn 0.886594 0.000000 -0.462549
vn 0.886594 0.000000 -0.462549
vn 0.886594 0.000000 -0.462549
vn 0.886594 0.000000 -0.462549
vn 0.000000 -1.000000 0.000000
vn 0.000000 -1.000000 0.000000
vn 0.000000 -1.000000 0.000000
vn 0.000000 -1.000000 0.000000
vn 0.462548 0.000000 0.886594
vn 0.462548 0.000000 0.886594
vn 0.462548 0.000000 0.886594
vn 0.462548 0.000000 0.886594
vn -0.462551 0.000000 -0.886593
vn -0.462551 0.000000 -0.886593
vn -0.462551 0.000000 -0.886593
vn -0.462551 0.000000 -0.886593
s off
g GrassGroup Grass3
usemtl initialShadingGroup
f 9/41/25 10/42/26 12/43/27 11/44/28
f 11/33/29 12/34/30 14/35/31 13/36/32
f 13/45/33 14/46/34 16/47/35 15/48/36
f 15/37/37 16/38/38 10/39/39 9/40/40
f 10/25/41 16/26/42 14/27/43 12/28/44
f 15/29/45 9/30/46 11/31/47 13/32/48
g default
v -0.819120 0.732931 27.607201
v -1.432061 0.732931 33.575809
v -0.819120 8.732931 27.607201
v -1.432061 8.732931 33.575809
v -0.321736 8.732931 27.658279
v -0.934677 8.732931 33.626888
v -0.321736 0.732931 27.658279
v -0.934677 0.732931 33.626888
vt 0.704249 0.616113
vt 0.722241 0.616113
vt 0.722241 0.903988
vt 0.704249 0.903988
vt 0.737748 0.616113
vt 0.755740 0.616113
vt 0.755740 0.903988
vt 0.737748 0.903988
vt 0.972242 0.225672
vt 0.972242 0.009766
vt 0.990234 0.009766
vt 0.990234 0.225672
vt 0.905244 0.760051
vt 0.905244 0.544144
vt 0.923236 0.544144
vt 0.923236 0.760051
vt 0.241260 0.312939
vt 0.457166 0.312939
vt 0.457166 0.600814
vt 0.241260 0.600814
vt 0.472754 0.616113
vt 0.688661 0.616113
vt 0.688661 0.903988
vt 0.472754 0.903988
vn -0.994768 0.000000 -0.102157
vn -0.994768 0.000000 -0.102157
vn -0.994768 0.000000 -0.102157
vn -0.994768 0.000000 -0.102157
vn 0.000000 1.000000 0.000000
vn 0.000000 1.000000 0.000000
vn 0.000000 1.000000 0.000000
vn 0.000000 1.000000 0.000000
vn 0.994768 0.000000 0.102157
vn 0.994768 0.000000 0.102157
vn 0.994768 0.000000 0.102157
vn 0.994768 0.000000 0.102157
vn 0.000000 -1.000000 -0.000000
vn 0.000000 -1.000000 -0.000000
vn 0.000000 -1.000000 -0.000000
vn 0.000000 -1.000000 -0.000000
vn -0.102158 0.000000 0.994768
vn -0.102158 0.000000 0.994768
vn -0.102158 0.000000 0.994768
vn -0.102158 0.000000 0.994768
vn 0.102158 0.000000 -0.994768
vn 0.102158 0.000000 -0.994768
vn 0.102158 0.000000 -0.994768
vn 0.102158 0.000000 -0.994768
s off
g GrassGroup Grass2
usemtl initialShadingGroup
f 17/65/49 18/66/50 20/67/51 19/68/52
f 19/57/53 20/58/54 22/59/55 21/60/56
f 21/69/57 22/70/58 24/71/59 23/72/60
f 23/61/61 24/62/62 18/63/63 17/64/64
f 18/49/65 24/50/66 22/51/67 20/52/68
f 23/53/69 17/54/70 19/55/71 21/56/72
g default
v -0.550251 0.530117 28.677576
v 3.701739 0.530117 32.910847
v -0.550251 8.530117 28.677576
v 3.701739 8.530117 32.910847
v -0.197478 8.530117 28.323242
v 4.054512 8.530117 32.556515
v -0.197478 0.530117 28.323242
v 4.054512 0.530117 32.556515
vt 0.771247 0.312939
vt 0.789239 0.312939
vt 0.789239 0.600815
vt 0.771247 0.600815
vt 0.804746 0.312939
vt 0.822738 0.312939
vt 0.822738 0.600815
vt 0.804746 0.600815
vt 0.938743 0.688082
vt 0.938743 0.472175
vt 0.956735 0.472175
vt 0.956735 0.688082
vt 0.871745 0.832019
vt 0.871745 0.616113
vt 0.889737 0.616113
vt 0.889737 0.832019
vt 0.241260 0.009766
vt 0.457166 0.009766
vt 0.457166 0.297641
vt 0.241260 0.297641
vt 0.009766 0.616113
vt 0.225672 0.616113
vt 0.225672 0.903988
vt 0.009766 0.903988
vn -0.705545 0.000000 0.708665
vn -0.705545 0.000000 0.708665
vn -0.705545 0.000000 0.708665
vn -0.705545 0.000000 0.708665
vn 0.000000 1.000000 -0.000000
vn 0.000000 1.000000 -0.000000
vn 0.000000 1.000000 -0.000000
vn 0.000000 1.000000 -0.000000
vn 0.705545 0.000000 -0.708665
vn 0.705545 0.000000 -0.708665
vn 0.705545 0.000000 -0.708665
vn 0.705545 0.000000 -0.708665
vn 0.000000 -1.000000 0.000000
vn 0.000000 -1.000000 0.000000
vn 0.000000 -1.000000 0.000000
vn 0.000000 -1.000000 0.000000
vn 0.708664 0.000000 0.705546
vn 0.708664 0.000000 0.705546
vn 0.708664 0.000000 0.705546
vn 0.708664 0.000000 0.705546
vn -0.708666 0.000000 -0.705544
vn -0.708666 0.000000 -0.705544
vn -0.708666 0.000000 -0.705544
vn -0.708666 0.000000 -0.705544
s off
g GrassGroup Grass1
usemtl initialShadingGroup
f 25/89/73 26/90/74 28/91/75 27/92/76
f 27/81/77 28/82/78 30/83/79 29/84/80
f 29/93/81 30/94/82 32/95/83 31/96/84
f 31/85/85 32/86/86 26/87/87 25/88/88
f 26/73/89 32/74/90 30/75/91 28/76/92
f 31/77/93 25/78/94 27/79/95 29/80/96
g default
v -3.000000 0.334918 30.867044
v 3.000000 0.334918 30.867044
v -3.000000 8.334917 30.867044
v 3.000000 8.334917 30.867044
v -3.000000 8.334917 30.367044
v 3.000000 8.334917 30.367044
v -3.000000 0.334918 30.367044
v 3.000000 0.334918 30.367044
vt 0.771247 0.616113
vt 0.789239 0.616113
vt 0.789239 0.903988
vt 0.771247 0.903988
vt 0.804746 0.616113
vt 0.822738 0.616113
vt 0.822738 0.903988
vt 0.804746 0.903988
vt 0.972242 0.456877
vt 0.972242 0.240971
vt 0.990234 0.240971
vt 0.990234 0.456877
vt 0.935743 0.225672
vt 0.935743 0.009766
vt 0.953735 0.009766
vt 0.953735 0.225672
vt 0.472754 0.009766
vt 0.688661 0.009766
vt 0.688661 0.297641
vt 0.472754 0.297641
vt 0.704249 0.009766
vt 0.920155 0.009766
vt 0.920155 0.297641
vt 0.704249 0.297641
vn 0.000000 0.000000 1.000000
vn 0.000000 0.000000 1.000000
vn 0.000000 0.000000 1.000000
vn 0.000000 0.000000 1.000000
vn 0.000000 1.000000 0.000000
vn 0.000000 1.000000 0.000000
vn 0.000000 1.000000 0.000000
vn 0.000000 1.000000 0.000000
vn 0.000000 0.000000 -1.000000
vn 0.000000 0.000000 -1.000000
vn 0.000000 0.000000 -1.000000
vn 0.000000 0.000000 -1.000000
vn 0.000000 -1.000000 0.000000
vn 0.000000 -1.000000 0.000000
vn 0.000000 -1.000000 0.000000
vn 0.000000 -1.000000 0.000000
vn 1.000000 0.000000 0.000000
vn 1.000000 0.000000 0.000000
vn 1.000000 0.000000 0.000000
vn 1.000000 0.000000 0.000000
vn -1.000000 0.000000 0.000000
vn -1.000000 0.000000 0.000000
vn -1.000000 0.000000 0.000000
vn -1.000000 0.000000 0.000000
s off
g GrassGroup Grass
usemtl initialShadingGroup
f 33/113/97 34/114/98 36/115/99 35/116/100
f 35/105/101 36/106/102 38/107/103 37/108/104
f 37/117/105 38/118/106 40/119/107 39/120/108
f 39/109/109 40/110/110 34/111/111 33/112/112
f 34/97/113 40/98/114 38/99/115 36/100/116
f 39/101/117 33/102/118 35/103/119 37/104/120
